<svg xmlns="http://www.w3.org/2000/svg" xmlns:xlink="http://www.w3.org/1999/xlink" version="1.1" x="0px" y="0px" viewBox="0 0 120 120" xml:space="preserve" class="style0"><style>.style0{enable-background:	new 0 0 120 120;}.style1{opacity:	0;fill:	#FFFFFF;}</style><g><rect x="-12.5" y="-12.5" width="145" height="145" class="style1"/><g><g><path d="M109.762 27.613c-11.907 0-23.525 1.885-34.64 5.608l25.151-13.525c0.602 0.5 1.4 0.9 2.3 0.9 c1.876 0 3.395-1.523 3.395-3.399c0-1.876-1.519-3.396-3.395-3.396c-1.877 0-3.398 1.52-3.398 3.4 c0 0.3 0.1 0.7 0.1 0.972l-29.77 16.01l-5.118-8.879L45.882 35.929l4.8 8.331L10.117 66.1 c-0.622-0.824-1.601-1.354-2.706-1.354c-1.879 0-3.4 1.523-3.4 3.399c0 1.9 1.5 3.4 3.4 3.4 c1.873 0 3.393-1.521 3.393-3.394c0-0.106-0.003-0.204-0.014-0.302L42.592 50.71c-3.494 2.737-6.839 5.694-10.011 8.9 C22.56 69.6 14.7 81.3 9.2 94.27c-1.666 3.932-3.084 7.935-4.269 12.001H8.74c1.085-3.577 2.355-7.103 3.823-10.575 c5.311-12.558 12.917-23.839 22.605-33.53c5.402-5.4 11.299-10.154 17.637-14.224l3.747 6.498l18.507-10.671l-3.166-5.498 c12.064-4.644 24.784-7.002 37.869-7.002c1.601 0 3.2 0 4.8 0.11v-3.662C112.959 27.6 111.4 27.6 109.8 27.613z"/></g><g><g><path d="M101.873 55.204v9.488c0 1.084-0.242 2.033-0.728 2.849c-0.484 0.816-1.185 1.441-2.101 1.876s-2 0.651-3.25 0.7 c-1.886 0-3.35-0.482-4.394-1.449c-1.043-0.966-1.564-2.288-1.564-3.967v-9.448h3.1v8.977c0 1.1 0.2 2 0.7 2.5 c0.455 0.5 1.2 0.8 2.3 0.792c1.017 0 1.754-0.266 2.212-0.798c0.458-0.531 0.687-1.365 0.687-2.502v-8.957H101.873z"/><path d="M116.188 69.868h-3.551l-3.41-5.547l-3.41 5.547h-3.33l4.864-7.562l-4.554-7.102h3.431l3.159 5.276l3.1-5.276h3.35 l-4.604 7.271L116.188 69.868z"/></g><g><path d="M64.417 80.236c0 2.421-0.656 4.271-1.971 5.552c-1.313 1.28-3.204 1.921-5.672 1.921h-4.062V73.045h4.494 c2.28 0 4.1 0.6 5.3 1.896S64.417 78 64.4 80.236z M62.612 80.297c0-1.912-0.48-3.354-1.439-4.323 c-0.959-0.97-2.386-1.454-4.278-1.454h-2.478v11.715h2.076c2.033 0 3.561-0.5 4.583-1.499 C62.101 83.7 62.6 82.3 62.6 80.297z"/><path d="M74.387 87.709h-8.175V73.045h8.175v1.515h-6.47v4.724h6.079v1.505h-6.079v5.396h6.47V87.709z"/><path d="M84.632 83.808c0 1.29-0.468 2.297-1.404 3.019c-0.937 0.723-2.207 1.083-3.812 1.083c-1.738 0-3.076-0.224-4.012-0.672 v-1.645c0.602 0.3 1.3 0.5 2 0.602c0.708 0.1 1.4 0.2 2.1 0.221c1.137 0 1.992-0.216 2.567-0.646 c0.575-0.432 0.862-1.032 0.862-1.801c0-0.508-0.102-0.925-0.306-1.249s-0.545-0.623-1.023-0.897 c-0.478-0.274-1.205-0.585-2.182-0.933c-1.363-0.488-2.338-1.066-2.923-1.735c-0.586-0.669-0.878-1.541-0.878-2.618 c0-1.13 0.425-2.029 1.273-2.698c0.85-0.668 1.973-1.003 3.37-1.003c1.458 0 2.8 0.3 4 0.803l-0.531 1.5 c-1.211-0.508-2.388-0.762-3.531-0.762c-0.902 0-1.608 0.193-2.116 0.581s-0.763 0.927-0.763 1.6 c0 0.5 0.1 0.9 0.3 1.249s0.503 0.6 0.9 0.893c0.444 0.3 1.1 0.6 2 0.9 c1.538 0.5 2.6 1.1 3.2 1.766C84.343 82 84.6 82.8 84.6 83.808z"/><path d="M86.069 87.709V73.045h1.705v14.664H86.069z"/><path d="M96.809 80.026h4.984v7.131c-0.775 0.248-1.564 0.435-2.367 0.562c-0.802 0.127-1.731 0.19-2.788 0.2 c-2.22 0-3.948-0.66-5.186-1.98s-1.855-3.171-1.855-5.552c0-1.524 0.306-2.86 0.918-4.007c0.611-1.146 1.492-2.022 2.643-2.628 s2.497-0.908 4.042-0.908c1.564 0 3 0.3 4.4 0.863l-0.662 1.504c-1.323-0.562-2.598-0.842-3.821-0.842 c-1.785 0-3.18 0.531-4.183 1.595c-1.003 1.062-1.504 2.537-1.504 4.423c0 2 0.5 3.5 1.4 4.5 c0.966 1 2.4 1.5 4.3 1.534c1.016 0 2.009-0.117 2.979-0.351v-4.514h-3.279V80.026z"/><path d="M115.38 87.709h-1.946l-8.014-12.307h-0.08c0.106 1.4 0.2 2.8 0.2 3.972v8.335h-1.575V73.045h1.926l7.994 12.3 h0.08c-0.013-0.181-0.043-0.761-0.09-1.74s-0.063-1.68-0.05-2.102v-8.415h1.595V87.709z"/></g><g><path d="M93.828 98.884c0 2.421-0.656 4.271-1.971 5.552c-1.313 1.28-3.204 1.921-5.672 1.921h-4.062V91.692h4.494 c2.28 0 4.1 0.6 5.3 1.896S93.828 96.6 93.8 98.884z M92.023 98.944c0-1.912-0.48-3.354-1.439-4.323 c-0.96-0.97-2.386-1.454-4.278-1.454h-2.478v11.715h2.077c2.032 0 3.561-0.5 4.583-1.499 C91.512 102.4 92 100.9 92 98.944z"/><path d="M104.547 106.356l-1.825-4.664h-5.878l-1.805 4.664h-1.726l5.798-14.725h1.434l5.768 14.725H104.547z M102.19 100.2 l-1.705-4.544c-0.221-0.575-0.448-1.28-0.683-2.116c-0.146 0.642-0.357 1.348-0.632 2.116l-1.725 4.544H102.19z"/><path d="M109.541 99.024l3.912-7.332h1.846l-4.896 8.977v5.688h-1.725v-5.606l-4.885-9.058h1.865L109.541 99.024z"/></g></g></g></g></svg>